<?xml version="1.0" encoding="UTF-8"?>
<svg id="Layer_1" data-name="Layer 1" xmlns="http://www.w3.org/2000/svg" viewBox="0 0 263.21 145.22">
  <defs>
    <style>
      .cls-1 {
        fill: #32292f;
      }
    </style>
  </defs>
  <path class="cls-1" d="M53.79,27.85c-5.95,20.55-11.89,41.11-17.84,61.66-1.69,5.84-3.38,11.69-5.07,17.53-.69,2.38,2.78,3.22,3.64,1,3.2-8.2,7.76-15.91,13.42-22.66,2.8-3.34,5.86-6.47,9.14-9.34,1.71-1.49,3.48-2.92,5.31-4.26,1.63-1.19,3.32-2.52,5.21-3.28,1.51-.61,3.7-1.07,4.28.94s-.07,4.73-.11,6.87c-.1,5.17.43,10.37,1.53,15.43,1.79,8.27,5.12,17.81,12.8,22.38,6.69,3.98,16.95,2.16,19.74-5.74.81-2.3-2.84-3.28-3.64-1-1.06,2.99-4.12,4.62-7.13,4.97-3.76.44-7.18-1.05-9.85-3.65-3-2.93-4.9-6.83-6.26-10.74-1.69-4.89-2.78-10.01-3.2-15.17-.21-2.55-.27-5.11-.17-7.66.08-2.2.52-4.53-.06-6.69-1.21-4.47-5.91-4.87-9.57-3.31s-7.26,4.61-10.4,7.26c-3.4,2.86-6.57,6-9.47,9.36-6.48,7.51-11.6,16.05-15.2,25.29l3.64,1c5.95-20.55,11.89-41.11,17.84-61.66,1.69-5.84,3.38-11.69,5.07-17.53.68-2.34-2.97-3.34-3.64-1h0Z"/>
  <path class="cls-1" d="M114.9,78.48c9.49.83,19.33-3.26,25.39-10.62,2.65-3.22,4.76-7.24,4.2-11.55-.59-4.55-4.86-7.26-9.27-5.89-4.84,1.5-8.5,6.09-11.54,9.9-3.3,4.14-6.16,8.6-8.47,13.37s-4.06,9.6-5.25,14.66-1.87,10.45,1.36,14.76c2.99,3.99,8.25,5.86,13.12,5.63,6.13-.28,11.64-3.41,16.81-6.44,2.1-1.23.2-4.49-1.91-3.26-6.68,3.9-15.59,8.9-23,3.75-3.61-2.51-4.01-6.79-3.29-10.82.76-4.29,2.08-8.51,3.71-12.54,3.29-8.13,8.25-15.67,14.44-21.89,1.89-1.9,7.35-6.23,9.24-1.97,1.29,2.92-.53,6.57-2.25,8.88-5.34,7.19-14.45,11.02-23.3,10.25-2.42-.21-2.41,3.57,0,3.78h0Z"/>
  <path class="cls-1" d="M160.23,66.65c-2.51,7.21-3.34,14.95-2.37,22.53.75,5.81,2.72,12.54,8.78,14.78,6.19,2.3,12.03-2.33,15.6-6.96,4.37-5.67,7.05-12.85,9.43-19.54,2.9-8.12,4.93-16.52,6.1-25.06.32-2.36-3.25-3.42-3.64-1-1.62,10.03-.49,20.05.68,30.06,1,8.62,2.01,17.36.72,26.01-1.07,7.19-3.48,14.56-8.42,20.05-5.02,5.57-13.02,9.25-20.48,6.68-3.7-1.27-6.24-4.22-7.08-8.01-.77-3.44.15-7.03,2.99-9.22.81-.63.65-2.01,0-2.67-.79-.81-1.87-.62-2.67,0-6.07,4.69-5.31,14.26-.54,19.57,5.99,6.67,16.82,5.88,23.94,1.67,15.32-9.05,17.62-29.23,16.24-45.27-1.08-12.55-3.78-25.26-1.74-37.85l-3.64-1c-1.83,13.33-5.73,26.54-11.87,38.53-2.24,4.37-6.3,10.38-11.73,10.82s-7.92-5.88-8.7-10.39c-1.31-7.6-.48-15.46,2.04-22.72.8-2.3-2.85-3.29-3.64-1h0Z"/>
  <path class="cls-1" d="M228.69,7.81c-3.97,14.84-5.19,30.34-3.55,45.62.26,2.39,4.04,2.42,3.78,0-1.6-14.96-.46-30.08,3.42-44.61.63-2.35-3.02-3.35-3.64-1h0Z"/>
  <path class="cls-1" d="M221.38,96.25c.63-.11,1.27-.22,1.9-.33.25-.06.46-.17.64-.34.21-.13.37-.31.49-.53.14-.22.21-.45.22-.7.06-.25.04-.5-.03-.75l-.19-.45c-.17-.28-.39-.51-.68-.68l-.45-.19c-.33-.09-.67-.09-1,0-.63.11-1.27.22-1.9.33-.25.06-.46.17-.64.34-.21.13-.37.31-.49.53-.14.22-.21.45-.22.7-.06.25-.04.5.03.75l.19.45c.17.28.39.51.68.68l.45.19c.33.09.67.09,1,0h0Z"/>
</svg>