<?xml version="1.0" encoding="UTF-8"?>
<svg id="Layer_1" data-name="Layer 1" xmlns="http://www.w3.org/2000/svg" viewBox="0 0 257.05 277.76">
  <defs>
    <style>
      .cls-1 {
        fill: #272530;
      }
    </style>
  </defs>
  <path class="cls-1" d="M90.52,10.5c-21.48-3.07-43.81,8.17-54.19,27.29-5.34,9.85-8.35,22.77-.37,32.05,8.32,9.68,21.92,10.21,33.57,7.89,4.54-.91,10.37-2.28,12.41-7.01,1.95-4.51-1.15-9.22-5.49-10.78-5.49-1.98-11.54.98-16.39,3.43-5.08,2.57-9.81,5.8-14.15,9.49-17.05,14.52-28.58,38.08-26.34,60.77,1.3,13.15,9.19,23.58,22.43,26.36,14.39,3.01,28.05-3.74,39.31-12.13,2.32-1.73.05-5.68-2.3-3.93-8.35,6.22-18.01,11.94-28.7,12.27-9.66.29-19.55-3.94-23.74-13.06s-3.07-20.1-.81-29.37c2.13-8.74,5.97-16.98,11.15-24.34,5.26-7.46,12-13.96,19.71-18.86,3.65-2.32,7.64-4.59,11.77-5.89,2.91-.91,7.64-1.72,9.28,1.83,1.49,3.21-2.39,4.94-4.72,5.72-9.76,3.26-22.75,3.82-31.15-3.01-8.93-7.26-6.72-19.08-2.04-28.18,9.11-17.69,29.7-28.97,49.54-26.13,2.87.41,4.1-3.98,1.21-4.39h0Z"/>
  <path class="cls-1" d="M98.14,121.18c.07-23.13.15-46.27.22-69.4-1.49.2-2.98.4-4.47.61,3.85,9.77,8.28,19.26,13.34,28.46,1,1.81,3.55,1.23,4.16-.54,3.84-11.19,8.7-21.94,14.55-32.22-1.41-.38-2.83-.77-4.24-1.15.93,24.35,1.85,48.71,2.78,73.06.11,2.92,4.66,2.93,4.55,0-.93-24.35-1.85-48.71-2.78-73.06-.08-2.2-3.09-3.18-4.24-1.15-6.03,10.62-11.04,21.76-15,33.31,1.39-.18,2.77-.36,4.16-.54-4.87-8.85-9.18-17.97-12.88-27.37-.89-2.27-4.46-2.14-4.47.61-.07,23.13-.15,46.27-.22,69.4,0,2.93,4.54,2.93,4.55,0h0Z"/>
  <path class="cls-1" d="M138.94,51.34c-.15,20.45.5,40.9,1.93,61.3.2,2.91,4.76,2.93,4.55,0-1.44-20.4-2.08-40.85-1.93-61.3.02-2.93-4.53-2.93-4.55,0h0Z"/>
  <path class="cls-1" d="M140.04,26.49c5.86,0,5.87-9.1,0-9.1s-5.87,9.1,0,9.1h0Z"/>
  <path class="cls-1" d="M164.08,18.25c-.78,41.58-1.56,83.15-2.33,124.73-.02.93.71,2.01,1.67,2.19,21.69,4.28,43.84,5.23,65.81,2.72,2.88-.33,2.91-4.89,0-4.55-21.56,2.47-43.31,1.65-64.6-2.55.56.73,1.11,1.46,1.67,2.19.78-41.58,1.56-83.15,2.33-124.73.05-2.93-4.5-2.93-4.55,0h0Z"/>
  <path class="cls-1" d="M182.37,34.6c2.89,7.21,5.95,14.35,9.24,21.38,1.64,3.5,4.94,13.18,10.64,9.08,2.28-1.64,3.67-5.04,5.01-7.41,1.88-3.33,3.59-6.74,5.14-10.23,2.99-6.77,5.36-13.76,7.12-20.95.7-2.85-3.53-4.01-4.39-1.21-9.97,32.56-19.32,66.1-17.17,100.5.18,2.9,4.65,2.95,4.55,0-.05-1.53-.1-3.06-.15-4.58-.1-2.92-4.65-2.94-4.55,0,.05,1.53.1,3.06.15,4.58h4.55c-2.13-34.01,7.14-67.09,17-99.29-1.46-.4-2.93-.81-4.39-1.21-2.68,10.97-6.8,21.49-12.46,31.26-1.21,2.08-2.74,6.13-4.59,2.45-1.32-2.61-2.53-5.29-3.75-7.95-2.67-5.82-5.17-11.7-7.55-17.64-1.08-2.69-5.48-1.51-4.39,1.21h0Z"/>
  <path class="cls-1" d="M20.43,183.91c4.81,26.34,7.83,52.95,9.07,79.7.11,2.42,4.03,3.26,4.47.61,2.57-15.34,5.27-31.46,14.1-44.64.49-.73.99-1.65,1.61-2.27,1.08-1.07.91-1.25,1.99.06,1.12,1.35,1.37,3.55,1.77,5.2,1.09,4.53,2.12,9.08,3.09,13.63,1.94,9.12,3.62,18.29,5.08,27.49.4,2.53,4.61,1.94,4.47-.61-.93-17.37,1.31-34.91,7.04-51.35,8.72-25.02,25.91-46.04,48.4-59.94,2.49-1.54.2-5.48-2.3-3.93-34.02,21.04-54.31,56.9-57.46,96.47-.5,6.24-.57,12.51-.24,18.76,1.49-.2,2.98-.4,4.47-.61-1.76-11.15-3.86-22.23-6.33-33.24-.88-3.9-3.03-21.21-11.12-17.33-3.06,1.47-5.7,7.24-7.25,10.08-2.14,3.95-3.87,8.14-5.3,12.39-3.12,9.29-4.8,18.98-6.42,28.62,1.49.2,2.98.4,4.47.61-1.26-27.15-4.35-54.18-9.24-80.91-.53-2.88-4.91-1.66-4.39,1.21h0Z"/>
  <path class="cls-1" d="M92.25,216.74c.49,11.59.98,23.18,1.48,34.76.12,2.92,4.68,2.93,4.55,0-.49-11.59-.98-23.18-1.48-34.76-.12-2.92-4.68-2.93-4.55,0h0Z"/>
  <path class="cls-1" d="M97.65,191.85c5.86,0,5.87-9.1,0-9.1s-5.87,9.1,0,9.1h0Z"/>
  <path class="cls-1" d="M120.66,169.91c-.72,22.94-1.44,45.88-2.16,68.82-.17,5.54-.41,11.09-.52,16.64-.07,3.34.89,5.81,4.49,6.38,9.94,1.55,21.56-.9,31.04-3.78,2.79-.85,1.6-5.25-1.21-4.39-4.79,1.46-9.68,2.59-14.66,3.2-2.12.26-4.24.43-6.37.52-1.95.09-5.23.61-7.1.02-2.41-.76-1.58-3.53-1.51-5.72.08-2.52.16-5.04.24-7.56.16-5.04.32-10.08.48-15.13.62-19.66,1.24-39.33,1.86-58.99.09-2.93-4.46-2.93-4.55,0h0Z"/>
  <path class="cls-1" d="M142.19,184.62c-.01,14.8-.02,29.6-.03,44.4,0,4.94-.93,10.14,5.05,11.25,5.95,1.1,12.46.16,18.19-1.52,2.81-.82,1.61-5.22-1.21-4.39-2.77.81-5.58,1.41-8.46,1.64-2.04.16-5.52.65-7.48-.17-1.79-.75-1.54-1.9-1.54-3.79v-3.76c0-3.01,0-6.02.01-9.03,0-11.54.02-23.08.03-34.62,0-2.93-4.55-2.93-4.55,0h0Z"/>
  <path class="cls-1" d="M176.92,201.62c.58,14.96,1.55,29.9,2.89,44.82.26,2.89,4.82,2.92,4.55,0-1.34-14.91-2.31-29.85-2.89-44.82-.11-2.92-4.67-2.93-4.55,0h0Z"/>
  <path class="cls-1" d="M176.55,181.15c5.86,0,5.87-9.1,0-9.1s-5.87,9.1,0,9.1h0Z"/>
  <path class="cls-1" d="M218.55,164.86c-4.05-9.06-16.69-6.87-21.57.06-5.34,7.58-7.83,25.8,2.7,30.29,1.94.83,4.12,1.01,6.12.26,2.88-1.08,4.18-4.33,7.01-5.32,7.94-2.76,11.58,9.3,13.25,14.57,4,12.55,6.35,26.6,2.22,39.43-1.12,3.47-2.74,7.6-5.38,10.23-3.33,3.33-7.72-.75-10.36-3.14-5.63-5.08-9.34-11.71-10.97-19.09-.63-2.86-5.02-1.65-4.39,1.21,1.3,5.85,3.81,11.28,7.47,16.03,3.18,4.11,7.99,9.12,13.13,10.67,11.47,3.47,16.09-16.96,16.89-24.57,1.31-12.64-1.62-25.97-6.21-37.71-1.96-5.01-4.93-10.11-10.37-11.83-2.44-.77-5.1-.81-7.47.21-2.63,1.13-4.52,5.02-7.35,5.15-9,.41-6.08-16.67-3.87-21.44,1.52-3.27,4.01-5.89,7.7-6.39,3.19-.44,6.17.65,7.53,3.68,1.19,2.67,5.12.36,3.93-2.3h0Z"/>
</svg>